<!--?xml version="1.0" encoding="utf-8"?-->
<!-- Generator: Adobe Illustrator 23.0.1, SVG Export Plug-In . SVG Version: 6.00 Build 0)  -->
<svg version="1.1" id="Layer_1" xmlns="http://www.w3.org/2000/svg" xmlns:xlink="http://www.w3.org/1999/xlink" x="0px" y="0px" viewBox="0 0 485.5 559.7" style="" xml:space="preserve">
<style type="text/css">
	.st0{fill:#204F6F;}
	.st1{fill:#AEDDF1;stroke:#000000;stroke-width:6;stroke-miterlimit:10;}
	.st2{fill:#3D3D3C;}
	.st3{fill:#3D3D3C;stroke:#E21E26;stroke-width:0;stroke-linecap:round;stroke-linejoin:round;}
	.st4{fill:#FFFFFF;}
	.st5{fill:none;}
	.st6{fill:#B1B1B1;}
	.st7{fill:none;stroke:#010101;stroke-width:2;stroke-miterlimit:10;}
	.st8{fill:#95C8EC;stroke:#010101;stroke-width:2;stroke-miterlimit:10;}
	.st9{fill:#F15C3E;stroke:#010101;stroke-width:2;stroke-miterlimit:10;}
	.st10{fill:#FFFFFF;stroke:#010101;stroke-width:2;stroke-miterlimit:10;}
	.st11{fill:#95C8EC;stroke:#010101;stroke-width:2;stroke-linejoin:round;stroke-miterlimit:10;}
	.st12{fill:#F15C3E;stroke:#010101;stroke-width:2;stroke-linejoin:round;stroke-miterlimit:10;}
	.st13{fill:none;stroke:#010101;stroke-width:2;stroke-linejoin:round;stroke-miterlimit:10;}
	.st14{fill:#F15C3E;}
	.st15{fill:#95C8EC;}
	.st16{fill:#010101;}
	.st17{fill:#95C8EC;stroke:#1D1D1B;stroke-width:2;stroke-miterlimit:10;}
	.st18{clip-path:url(#SVGID_2_);fill:#254F6E;}
	.st19{clip-path:url(#SVGID_2_);}
	.st20{clip-path:url(#SVGID_4_);}
	.st21{clip-path:url(#SVGID_4_);fill:url(#);}
	.st22{clip-path:url(#SVGID_4_);fill:#02A9DD;}
	.st23{opacity:0.5922;clip-path:url(#SVGID_4_);fill:url(#);}
	.st24{opacity:0.098;clip-path:url(#SVGID_4_);}
	.st25{clip-path:url(#SVGID_4_);fill:#FFFFFF;}
	.st26{opacity:0.1451;clip-path:url(#SVGID_8_);fill:none;stroke:#292929;stroke-width:1.679;}
	.st27{clip-path:url(#SVGID_10_);fill:url(#);}
	.st28{opacity:0.4941;clip-path:url(#SVGID_10_);enable-background:new    ;}
	.st29{clip-path:url(#SVGID_12_);fill:none;stroke:#231F20;stroke-width:5.0371;}
	.st30{clip-path:url(#SVGID_12_);fill:#231F20;}
	.st31{clip-path:url(#SVGID_10_);fill:#02A9DD;}
	.st32{clip-path:url(#SVGID_10_);fill:none;stroke:#02A9DD;stroke-width:1.679;}
	.st33{clip-path:url(#SVGID_10_);fill:none;stroke:#02A9DD;stroke-width:3.358;}
	.st34{clip-path:url(#SVGID_10_);fill:#FFFFFF;}
	.st35{fill:#5AC4F0;}
	.st36{fill:#FFFFFF;stroke:#000000;stroke-width:5;stroke-linecap:round;stroke-miterlimit:10;}
	.st37{fill:none;stroke:#000000;stroke-width:3;stroke-miterlimit:10;}
	.st38{fill:#F6948B;}
	.st39{fill:#4ABBEB;}
	.st40{fill:none;stroke:#000000;stroke-width:4;stroke-miterlimit:10;}
	.st41{fill:none;stroke:#000000;stroke-width:4;stroke-linecap:round;stroke-miterlimit:10;}
	.st42{fill:none;stroke:#000000;stroke-width:4;stroke-linecap:round;stroke-miterlimit:10;stroke-dasharray:11.8703,11.8703;}
	.st43{fill:none;stroke:#000000;stroke-width:5;stroke-linecap:round;stroke-miterlimit:10;stroke-dasharray:12,20;}
	.st44{fill:none;stroke:#010101;stroke-width:3;stroke-linejoin:round;stroke-miterlimit:10;}
</style>
<g>
	<path class="st1 aujFwuLc_0" d="M319.91,556.7c-21.48-10.02-42.9-20.17-64.47-29.99c-5.9-2.69-8.69-6.41-8.46-13.09
		c0.37-10.87,0.03-21.76,0.14-32.64c0.03-2.88-0.84-5.05-2.73-7.21c-23.63-26.99-47.2-54.03-70.69-81.13
		c-2.46-2.84-5.04-4.17-8.87-4.17c-8.62-0.02-17.24-0.47-25.85-0.9c-2.85-0.14-4.66,0.9-6.19,3.28c-4.94,7.68-10,15.28-15.12,22.84
		c-4.86,7.18-10.5,8.09-16.98,2.46c-13.88-12.08-27.56-24.37-41.41-36.48c-3.33-2.92-4.64-6.57-5.07-10.79
		c-0.97-9.56-2.02-19.1-3.04-28.65c-0.33-3.07-1.58-5.66-3.51-8.09c-13.62-17.12-27.14-34.31-40.73-51.45
		c-2.29-2.89-4.34-5.79-3.85-9.79c0.66-5.39,4.62-8.68,11.01-8.7c17.89-0.06,35.78-0.03,53.67-0.03c14.75,0,29.5,0,44.25,0
		c7.02,0,7.03-0.01,7.03-7.32c0-56.61,0-113.22,0-169.83c0-10.35,2.77-13.1,13.17-13.1c40.17-0.01,80.34,0,120.51,0
		c10.51,0,13.59,3.13,13.6,13.93c0.02,24.28,0.11,48.57-0.08,72.85c-0.04,4.66,1.19,6.4,6.07,6.29c13.02-0.3,26.05-0.13,39.07-0.09
		c10.01,0.03,13.37,3.33,13.56,13.2c0.23,12.3,0.23,12.3,12.3,12.3c35.62,0,71.24-0.01,106.86,0c10.64,0,14.12,3.38,14.16,14.15
		c0.09,22.86,0.11,45.73-0.04,68.6c-0.03,4.74,1,8.92,3.22,13.07c6.36,11.95,12.53,24.01,18.71,36.07
		c3.55,6.93,3.24,10.03-1.96,15.79c-28.22,31.32-56.51,62.59-84.76,93.87c-2.35,2.6-5.26,3.81-8.74,3.94
		c-6.89,0.26-13.78,0.74-20.67,0.96c-3.7,0.12-6.44,1.35-8.74,4.5c-6.22,8.51-12.7,16.84-19.22,25.13c-1.97,2.5-2.75,5.09-2.74,8.25
		c0.08,23.34-0.04,46.68,0.11,70.01c0.03,5.22-1.54,9.22-5.98,11.97C324.94,556.7,322.42,556.7,319.91,556.7z"></path>
</g>
<path class="st4 aujFwuLc_1" d="M239.36,349c-9.71,0.84-16.9,9.4-16.06,19.11c0.84,9.71,9.4,16.9,19.1,16.06c9.71-0.84,16.9-9.39,16.05-19.1
	C257.62,355.35,249.07,348.17,239.36,349z"></path>
<path class="st16 aujFwuLc_2" d="M240.86,385.66c-9.8,0-18.14-7.66-18.99-17.43c-0.91-10.48,6.88-19.74,17.36-20.65
	c10.49-0.91,19.75,7.04,20.65,17.37c0.44,5.08-1.12,10.02-4.4,13.92c-3.28,3.9-7.88,6.29-12.96,6.73
	C241.97,385.64,241.41,385.66,240.86,385.66z M240.89,350.36c-0.47,0-0.94,0.02-1.41,0.06c-8.91,0.77-15.53,8.65-14.76,17.56
	c0.76,8.77,8.65,15.53,17.56,14.76c4.32-0.38,8.23-2.41,11.01-5.72c2.78-3.31,4.11-7.51,3.74-11.83
	C256.31,356.88,249.22,350.36,240.89,350.36z"></path>
<path class="st35 aujFwuLc_3" d="M238.01,333.43c-18.31,1.59-31.87,17.72-30.28,36.03c0.99,11.42,7.63,20.97,16.92,26.18l21.65,33.48
	l15.57-36.71c8.26-6.72,13.16-17.28,12.17-28.7C272.45,345.4,256.32,331.84,238.01,333.43z M242.4,384.16
	c-9.71,0.84-18.26-6.34-19.1-16.06c-0.84-9.71,6.35-18.27,16.06-19.11c9.71-0.83,18.26,6.35,19.1,16.06
	C259.3,374.77,252.12,383.32,242.4,384.16z"></path>
<path class="st37 aujFwuLc_4" d="M246.3,430.55c-0.48,0-0.94-0.24-1.2-0.65l-21.46-33.19c-9.88-5.67-16.36-15.78-17.34-27.13
	c-1.65-19.06,12.51-35.92,31.58-37.57c19.11-1.67,35.95,12.8,37.57,31.58c0.98,11.34-3.65,22.42-12.41,29.7l-15.43,36.39
	c-0.21,0.49-0.67,0.82-1.19,0.87C246.38,430.55,246.34,430.55,246.3,430.55z M240.92,334.74c-0.92,0-1.85,0.04-2.79,0.12
	c-17.5,1.52-30.5,16.99-28.98,34.48c0.91,10.52,6.96,19.88,16.2,25.05c0.2,0.11,0.38,0.28,0.5,0.47l20.18,31.22l14.51-34.23
	c0.09-0.21,0.23-0.4,0.41-0.55c8.2-6.68,12.56-16.95,11.65-27.46C271.2,347.52,257.28,334.74,240.92,334.74z M240.86,385.66
	c-9.8,0-18.14-7.66-18.99-17.43c-0.91-10.48,6.88-19.74,17.36-20.65c10.49-0.91,19.75,7.04,20.65,17.37
	c0.44,5.08-1.12,10.02-4.4,13.92c-3.28,3.9-7.88,6.29-12.96,6.73C241.97,385.64,241.41,385.66,240.86,385.66z M240.89,350.36
	c-0.47,0-0.94,0.02-1.41,0.06c-8.91,0.77-15.53,8.65-14.76,17.56c0.76,8.77,8.65,15.53,17.56,14.76c4.32-0.38,8.23-2.41,11.01-5.72
	c2.78-3.31,4.11-7.51,3.74-11.83C256.31,356.88,249.22,350.36,240.89,350.36z"></path>
<g>
	<path class="st37 aujFwuLc_5" d="M232.14,75.92c-0.79,0-1.43-0.64-1.43-1.43V25.24c0-0.79,0.64-1.43,1.43-1.43c0.79,0,1.43,0.64,1.43,1.43
		v49.25C233.57,75.28,232.93,75.92,232.14,75.92z"></path>
	<path class="st12 aujFwuLc_6" d="M260.09,49.86L232.14,49.86L232.14,25.24L260.09,25.24L254.59,37.55Z"></path>
	<path class="st16 aujFwuLc_7" d="M260.15,51.29c-0.01,0-0.04,0-0.06,0h-27.95c-0.79,0-1.43-0.64-1.43-1.43V25.24c0-0.79,0.64-1.43,1.43-1.43
		h27.95c0.48,0,0.94,0.25,1.2,0.65c0.26,0.41,0.3,0.92,0.11,1.36l-5.24,11.73l5.09,11.4c0.2,0.25,0.33,0.56,0.33,0.91
		C261.58,50.65,260.94,51.29,260.15,51.29z M233.57,48.43h24.32l-4.6-10.3c-0.16-0.37-0.16-0.8,0-1.17l4.6-10.3h-24.32V48.43z"></path>
	<g>
		<path class="st37 aujFwuLc_8" d="M234.42,106.99c-0.73,0-1.36-0.56-1.42-1.3c-0.25-2.84-0.44-5.71-0.59-8.62c-0.04-0.79,0.56-1.46,1.35-1.5
			c0.81-0.07,1.46,0.56,1.5,1.35c0.15,2.87,0.34,5.71,0.59,8.51c0.07,0.79-0.51,1.48-1.3,1.55
			C234.51,106.99,234.47,106.99,234.42,106.99z"></path>
	</g>
	<g>
		<path class="st37 aujFwuLc_9" d="M270.78,310.14c-0.2,0-0.39-0.04-0.58-0.12c-5.38-2.4-10.4-5.21-14.94-8.36c-0.65-0.45-0.81-1.34-0.36-1.99
			c0.45-0.65,1.34-0.81,1.99-0.36c4.39,3.05,9.26,5.77,14.47,8.09c0.72,0.32,1.05,1.17,0.72,1.89
			C271.85,309.83,271.33,310.14,270.78,310.14z M245.29,292.92c-0.37,0-0.73-0.14-1.01-0.42c-4.01-4.02-7.6-8.54-10.69-13.42
			c-0.42-0.67-0.22-1.55,0.44-1.98c0.66-0.42,1.55-0.23,1.98,0.45c2.97,4.71,6.44,9.06,10.3,12.93c0.56,0.56,0.56,1.46-0.01,2.02
			C246.02,292.78,245.66,292.92,245.29,292.92z M228.32,267.28c-0.56,0-1.09-0.33-1.32-0.88c-2.1-5-3.89-10.46-5.31-16.25
			c-0.19-0.77,0.28-1.54,1.05-1.73c0.77-0.19,1.54,0.28,1.73,1.05c1.39,5.63,3.13,10.96,5.17,15.82c0.31,0.73-0.04,1.56-0.77,1.87
			C228.69,267.25,228.5,267.28,228.32,267.28z M220.41,237.43c-0.7,0-1.31-0.51-1.41-1.22c-0.41-2.8-0.77-5.76-1.07-8.8
			c-0.27-2.71-0.44-5.45-0.52-8.17c-0.02-0.79,0.6-1.45,1.39-1.47c0.01,0,0.03,0,0.04,0c0.77,0,1.41,0.61,1.43,1.39
			c0.07,2.64,0.24,5.32,0.5,7.96c0.3,3,0.66,5.92,1.06,8.67c0.11,0.78-0.43,1.51-1.21,1.62
			C220.55,237.43,220.48,237.43,220.41,237.43z M219.39,206.58c-0.05,0-0.1,0-0.16-0.01c-0.79-0.08-1.35-0.79-1.27-1.58
			c0.61-5.73,1.72-11.38,3.28-16.79c0.22-0.76,0.99-1.21,1.77-0.98c0.76,0.22,1.2,1.01,0.98,1.77c-1.51,5.25-2.58,10.73-3.18,16.3
			C220.73,206.04,220.11,206.58,219.39,206.58z M305.25,197.3c-0.05,0-0.1,0-0.15-0.01c-5.31-0.54-10.91-2.11-16.63-4.68
			c-0.72-0.32-1.04-1.17-0.72-1.89c0.32-0.72,1.17-1.05,1.89-0.72c5.44,2.44,10.74,3.94,15.74,4.45c0.79,0.08,1.36,0.78,1.28,1.57
			C306.6,196.75,305.98,197.3,305.25,197.3z M319.17,196.07c-0.61,0-1.18-0.4-1.37-1.01c-0.23-0.76,0.2-1.56,0.95-1.79
			c2.81-0.85,5.52-2.12,8.05-3.76c2.05-1.34,3.97-2.86,5.69-4.54c0.57-0.55,1.47-0.54,2.02,0.03c0.55,0.56,0.54,1.47-0.03,2.02
			c-1.86,1.81-3.92,3.45-6.13,4.89c-2.76,1.79-5.71,3.17-8.77,4.1C319.45,196.05,319.31,196.07,319.17,196.07z M276.82,185.81
			c-0.28,0-0.56-0.08-0.8-0.25c-4.63-3.16-9.1-6.79-13.27-10.81c-0.57-0.55-0.59-1.45-0.04-2.02c0.55-0.56,1.46-0.58,2.02-0.04
			c4.06,3.91,8.39,7.44,12.9,10.51c0.65,0.44,0.82,1.33,0.38,1.99C277.73,185.59,277.28,185.81,276.82,185.81z M227.52,176.87
			c-0.2,0-0.41-0.04-0.6-0.13c-0.72-0.33-1.03-1.18-0.7-1.9c2.42-5.22,5.32-10.19,8.64-14.8c0.46-0.65,1.36-0.79,1.99-0.32
			c0.64,0.46,0.79,1.35,0.32,2c-3.21,4.46-6.02,9.27-8.36,14.33C228.58,176.56,228.06,176.87,227.52,176.87z M341.43,175.9
			c-0.19,0-0.38-0.04-0.57-0.12c-0.73-0.31-1.06-1.16-0.75-1.88c1.92-4.43,2.89-9.13,2.88-13.99c0-0.62-0.02-1.23-0.05-1.85
			c-0.04-0.79,0.56-1.46,1.35-1.5c0.79-0.06,1.46,0.56,1.5,1.35c0.04,0.66,0.05,1.33,0.05,2c0,5.25-1.04,10.34-3.12,15.12
			C342.5,175.58,341.98,175.9,341.43,175.9z M254.34,164.69c-0.43,0-0.85-0.19-1.13-0.56c-3.02-3.94-5.72-8.15-8.04-12.53
			c-0.42-0.03-0.76-0.13-1.05-0.42c-0.52-0.53-0.56-1.36-0.09-1.92c-0.13-0.63,0.16-1.28,0.76-1.58c0.31-0.15,0.65-0.18,0.96-0.11
			c3.61-3.42,7.51-6.53,11.62-9.28c0.65-0.44,1.54-0.26,1.98,0.4c0.44,0.66,0.26,1.54-0.4,1.98c-4.07,2.71-7.92,5.8-11.47,9.19
			c2.29,4.39,4.98,8.6,7.99,12.53c0.48,0.63,0.36,1.53-0.26,2.01C254.95,164.59,254.64,164.69,254.34,164.69z M340.95,145.87
			c-0.53,0-1.04-0.3-1.29-0.81c-2.36-4.93-5.94-9.14-10.33-12.15c-0.65-0.45-0.82-1.34-0.37-1.99c0.45-0.65,1.34-0.81,1.99-0.37
			c4.81,3.31,8.71,7.89,11.29,13.28c0.34,0.71,0.04,1.56-0.67,1.91C341.37,145.83,341.16,145.87,340.95,145.87z M240.15,137.36
			c-0.6,0-1.17-0.39-1.36-0.99c-1.67-5.18-2.98-10.61-4.01-16.6c-0.13-0.78,0.39-1.52,1.17-1.65c0.76-0.13,1.52,0.39,1.65,1.17
			c1,5.85,2.28,11.15,3.91,16.2c0.24,0.75-0.17,1.56-0.92,1.8C240.44,137.33,240.3,137.36,240.15,137.36z M270.47,134.11
			c-0.54,0-1.07-0.32-1.3-0.85c-0.32-0.72,0-1.57,0.72-1.89c5.22-2.34,10.7-4.16,16.27-5.4c0.78-0.16,1.54,0.32,1.71,1.09
			c0.17,0.77-0.32,1.53-1.09,1.71c-5.38,1.2-10.67,2.95-15.72,5.21C270.86,134.08,270.66,134.11,270.47,134.11z M317.22,127.85
			c-0.09,0-0.18-0.01-0.27-0.03c-0.85-0.16-1.71-0.3-2.6-0.41c-4.62-0.55-9.3-0.72-13.89-0.49c-0.89,0.1-1.46-0.57-1.5-1.36
			c-0.04-0.79,0.56-1.46,1.36-1.5c4.75-0.25,9.59-0.07,14.38,0.51c0.96,0.11,1.88,0.26,2.79,0.43c0.78,0.15,1.29,0.9,1.14,1.67
			C318.5,127.37,317.89,127.85,317.22,127.85z"></path>
	</g>
	<g>
		<path class="st37 aujFwuLc_10" d="M292.61,317.32c-0.11,0-0.21-0.01-0.32-0.04c-2.88-0.66-5.7-1.41-8.39-2.22c-0.76-0.23-1.19-1.02-0.96-1.78
			c0.22-0.75,1.02-1.19,1.78-0.96c2.63,0.79,5.39,1.52,8.21,2.17c0.77,0.18,1.25,0.95,1.07,1.72
			C293.85,316.88,293.26,317.32,292.61,317.32z"></path>
	</g>
	<path class="st37 aujFwuLc_11" d="M255.08,439.3c-0.4,0-0.81-0.17-1.09-0.51c-0.51-0.6-0.44-1.51,0.17-2.02c4.86-4.11,9.5-7.42,14.16-10.11
		c0.69-0.39,1.56-0.16,1.96,0.53c0.39,0.68,0.16,1.56-0.52,1.96c-4.51,2.6-9.01,5.81-13.74,9.81
		C255.73,439.19,255.4,439.3,255.08,439.3z M282.03,423.46c-0.6,0-1.16-0.38-1.36-0.98c-0.25-0.75,0.15-1.56,0.91-1.81
		c2.87-0.96,5.88-1.75,8.94-2.36c2.71-0.53,5.35-1.06,7.92-1.6c0.75-0.18,1.53,0.34,1.69,1.11c0.16,0.77-0.33,1.53-1.11,1.69
		c-2.58,0.54-5.23,1.07-7.95,1.6c-2.95,0.58-5.84,1.35-8.59,2.27C282.33,423.44,282.18,423.46,282.03,423.46z M312.62,416.17
		c-0.62,0-1.19-0.4-1.37-1.03c-0.22-0.76,0.21-1.55,0.97-1.78c6.2-1.82,11.25-3.94,15.45-6.47c0.67-0.41,1.55-0.19,1.96,0.49
		c0.41,0.68,0.19,1.55-0.49,1.96c-4.4,2.66-9.67,4.87-16.11,6.76C312.89,416.14,312.76,416.17,312.62,416.17z M339.17,400.29
		c-0.32,0-0.64-0.11-0.91-0.32c-0.61-0.5-0.7-1.4-0.2-2.01c3.3-4.03,5.87-8.79,7.88-14.56c0.26-0.75,1.09-1.13,1.82-0.88
		c0.75,0.26,1.14,1.08,0.88,1.82c-2.12,6.09-4.85,11.13-8.36,15.43C340,400.11,339.59,400.29,339.17,400.29z M350.7,371.44
		c-0.08,0-0.15,0-0.23-0.02c-0.78-0.13-1.31-0.86-1.19-1.64c0.4-2.51,0.61-5.02,0.61-7.44c0-3.11-0.33-6.16-0.99-9.07
		c-0.18-0.77,0.3-1.54,1.08-1.71c0.77-0.19,1.54,0.31,1.71,1.08c0.71,3.12,1.07,6.38,1.07,9.71c0,2.57-0.22,5.22-0.64,7.89
		C352,370.94,351.39,371.44,350.7,371.44z M344.63,341.35c-0.45,0-0.9-0.22-1.18-0.63c-2.98-4.38-6.97-8.22-11.87-11.43
		c-0.66-0.43-0.85-1.32-0.42-1.98c0.44-0.66,1.32-0.84,1.98-0.42c5.22,3.41,9.48,7.52,12.67,12.21c0.44,0.65,0.28,1.54-0.38,1.99
		C345.19,341.27,344.91,341.35,344.63,341.35z M319.54,323.26c-0.16,0-0.32-0.03-0.49-0.08c-4.91-1.77-10.41-3.14-16.36-4.08
		c-0.78-0.12-1.31-0.86-1.19-1.64c0.12-0.78,0.87-1.31,1.64-1.19c6.12,0.97,11.8,2.38,16.88,4.21c0.74,0.27,1.13,1.09,0.86,1.83
		C320.68,322.9,320.13,323.26,319.54,323.26z"></path>
</g>
<style data-made-with="vivus-instant">.aujFwuLc_0{stroke-dasharray:1708 1710;stroke-dashoffset:1709;animation:aujFwuLc_draw 2000ms linear 0ms forwards;}.aujFwuLc_1{stroke-dasharray:111 113;stroke-dashoffset:112;animation:aujFwuLc_draw 2000ms linear 90ms forwards;}.aujFwuLc_2{stroke-dasharray:222 224;stroke-dashoffset:223;animation:aujFwuLc_draw 2000ms linear 181ms forwards;}.aujFwuLc_3{stroke-dasharray:361 363;stroke-dashoffset:362;animation:aujFwuLc_draw 2000ms linear 272ms forwards;}.aujFwuLc_4{stroke-dasharray:718 720;stroke-dashoffset:719;animation:aujFwuLc_draw 2000ms linear 363ms forwards;}.aujFwuLc_5{stroke-dasharray:108 110;stroke-dashoffset:109;animation:aujFwuLc_draw 2000ms linear 454ms forwards;}.aujFwuLc_6{stroke-dasharray:108 110;stroke-dashoffset:109;animation:aujFwuLc_draw 2000ms linear 545ms forwards;}.aujFwuLc_7{stroke-dasharray:211 213;stroke-dashoffset:212;animation:aujFwuLc_draw 2000ms linear 636ms forwards;}.aujFwuLc_8{stroke-dasharray:27 29;stroke-dashoffset:28;animation:aujFwuLc_draw 2000ms linear 727ms forwards;}.aujFwuLc_9{stroke-dasharray:674 676;stroke-dashoffset:675;animation:aujFwuLc_draw 2000ms linear 818ms forwards;}.aujFwuLc_10{stroke-dasharray:27 29;stroke-dashoffset:28;animation:aujFwuLc_draw 2000ms linear 909ms forwards;}.aujFwuLc_11{stroke-dasharray:304 306;stroke-dashoffset:305;animation:aujFwuLc_draw 2000ms linear 1000ms forwards;}@keyframes aujFwuLc_draw{100%{stroke-dashoffset:0;}}@keyframes aujFwuLc_fade{0%{stroke-opacity:1;}94.44444444444444%{stroke-opacity:1;}100%{stroke-opacity:0;}}</style></svg>
